<svg xmlns="http://www.w3.org/2000/svg" xmlns:svgjs="http://svgjs.dev/svgjs" xmlns:xlink="http://www.w3.org/1999/xlink" version="1.1"><g id="Choose Color"><image xlink:href="White.png" id="White" width="100" height="100" data-name="White" style="stroke:#000;stroke-miterlimit:10;stroke-width:5px;fill:#fff" transform="matrix(145.858,0,0,145.858,857.9344,1306.136)"/><image xlink:href="Athletic_Heather.png" id="Athletic_Heather" width="100" height="100" data-name="Athletic_Heather" style="stroke:#000;stroke-miterlimit:10;stroke-width:5px;fill:#aeadb0" transform="matrix(145.858,0,0,145.858,857.9344,1306.136)"/><image xlink:href="Dark_Grey_Heather.png" id="Dark_Grey_Heather" width="100" height="100" data-name="Dark_Grey_Heather" style="stroke:#000;stroke-miterlimit:10;stroke-width:5px;fill:#2d2d2f" transform="matrix(145.858,0,0,145.858,857.9344,1306.136)"/><image xlink:href="Black.png" id="Black" width="100" height="100" data-name="Black" style="stroke:#000;stroke-miterlimit:10;stroke-width:5px;fill:red" transform="matrix(145.858,0,0,145.858,857.9344,1306.136)"/><image xlink:href="Red.png" id="Red" width="100" height="100" data-name="Red" style="stroke:#000;stroke-miterlimit:10;stroke-width:5px;fill:#be2526" transform="matrix(145.858,0,0,145.858,857.9344,1306.136)"/><image xlink:href="Maroon.png" id="Maroon" width="100" height="100" data-name="Maroon" style="stroke:#000;stroke-miterlimit:10;stroke-width:5px;fill:#441211" transform="matrix(145.858,0,0,145.858,857.9344,1306.136)"/><image xlink:href="Heather_Mauve.png" id="Heather_Mauve" width="100" height="100" data-name="Heather_Mauve" style="stroke:#000;stroke-miterlimit:10;stroke-width:5px;fill:#bb8180" transform="matrix(145.858,0,0,145.858,857.9344,1306.136)"/><image xlink:href="Orange.png" id="Orange" width="100" height="100" data-name="Orange" style="stroke:#000;stroke-miterlimit:10;stroke-width:5px;fill:#ee5523" transform="matrix(145.858,0,0,145.858,857.9344,1306.136)"/><image xlink:href="Gold.png" id="Gold" width="100" height="100" data-name="Gold" style="stroke:#000;stroke-miterlimit:10;stroke-width:5px;fill:#fdbe10" transform="matrix(145.858,0,0,145.858,857.9344,1306.136)"/><image xlink:href="Kelly.png" id="Kelly" width="100" height="100" data-name="Kelly" style="stroke:#000;stroke-miterlimit:10;stroke-width:5px;fill:#056b38" transform="matrix(145.858,0,0,145.858,857.9344,1306.136)"/><image xlink:href="Light_Blue.png" id="Light_Blue" width="100" height="100" data-name="Light_Blue" style="stroke:#000;stroke-miterlimit:10;stroke-width:5px;fill:#add7e5" transform="matrix(145.858,0,0,145.858,857.9344,1306.136)"/><image xlink:href="True_Royal.png" id="True_Royal" width="100" height="100" data-name="True_Royal" style="stroke:#000;stroke-miterlimit:10;stroke-width:5px;fill:#282a73" transform="matrix(145.858,0,0,145.858,857.9344,1306.136)"/><image xlink:href="Navy.png" id="Navy" width="100" height="100" data-name="Navy" style="stroke:#000;stroke-miterlimit:10;stroke-width:5px;fill:#0c173e" transform="matrix(145.858,0,0,145.858,857.9344,1306.136)"/><image xlink:href="Pink.png" id="Pink" width="100" height="100" data-name="Pink" style="stroke:#000;stroke-miterlimit:10;stroke-width:5px;fill:#f8beca" transform="matrix(145.858,0,0,145.858,857.9344,1306.136)"/><image xlink:href="Heather_Peach.png" id="Heather_Peach" width="100" height="100" data-name="Heather_Peach" style="stroke:#000;stroke-miterlimit:10;stroke-width:5px;fill:#f8d2c1" transform="matrix(145.858,0,0,145.858,857.9344,1306.136)"/></g><g id="Text__x40_Big_Dinosaur_x27_s_Color"><text svgjs:data="{&quot;leading&quot;:&quot;1.3&quot;}" data-name="_x33__63_" style="font-family:&quot;NiceChalkDemo&quot;;font-size:244.8652px" transform="matrix(1,0,0,1,6104.1299,10358.2344)">Qwertyuiop</text></g><g id="Background"><image xlink:href="nB1n4MPn.png" id="nB1n4MPn" width="2000" height="2000" data-name="nB1n4MPn" style="overflow:visible" transform="matrix(7.2929,0,0,7.2929,858.6482,1307.9917)"/><image xlink:href="RQofBXAq.png" id="RQofBXAq" width="2000" height="2000" data-name="RQofBXAq" style="overflow:visible" transform="matrix(7.2929,0,0,7.2929,857.9344,1306.136)"/><image xlink:href="0jeuwkUR.png" id="0jeuwkUR" width="2000" height="2000" data-name="0jeuwkUR" style="overflow:visible" transform="matrix(7.2929,0,0,7.2929,857.9344,1306.136)"/><image xlink:href="p1PJjXco.png" id="p1PJjXco" width="2000" height="2000" data-name="p1PJjXco" style="overflow:visible" transform="matrix(7.2929,0,0,7.2929,857.9344,1306.136)"/></g><g id="Choose BG_1_"><image xlink:href="_x32__00000018955975714416677740000010170985030164903562_.png" id="_x32__00000018955975714416677740000010170985030164903562_" width="700" height="800" data-name="_x32__00000018955975714416677740000010170985030164903562_" style="overflow:visible" transform="matrix(6.2572,0,0,6.2572,5876.4614,5745.2471)"/></g><g id="Choose _x33__60_"><image xlink:href="_x31__2_.png" id="_x31__2_" width="800" height="800" data-name="_x31__2_" style="overflow:visible" transform="matrix(3.0282,0,0,3.0282,5500.4902,7692.9287)"/><image xlink:href="_x32__1_.png" id="_x32__1_" width="800" height="800" data-name="_x32__1_" style="overflow:visible" transform="matrix(3.0282,0,0,3.0282,5500.4902,7692.9287)"/><image xlink:href="_x33__1_.png" id="_x33__1_" width="800" height="800" data-name="_x33__1_" style="overflow:visible" transform="matrix(3.0282,0,0,3.0282,5500.4902,7692.9287)"/><image xlink:href="_x34__1_.png" id="_x34__1_" width="800" height="800" data-name="_x34__1_" style="overflow:visible" transform="matrix(3.0282,0,0,3.0282,5500.4902,7692.9287)"/><image xlink:href="_x35__1_.png" id="_x35__1_" width="800" height="800" data-name="_x35__1_" style="overflow:visible" transform="matrix(3.0282,0,0,3.0282,5500.4902,7692.9287)"/></g><g id="Choose Title"><image xlink:href="_x31_.png" id="_x31_" width="800" height="800" data-name="_x31_" style="overflow:visible" transform="matrix(5.475,0,0,5.475,5876.4614,4310.769)"/><image xlink:href="_x32_.png" id="_x32_" width="800" height="800" data-name="_x32_" style="overflow:visible" transform="matrix(5.475,0,0,5.475,5876.4614,4310.769)"/><image xlink:href="_x33_.png" id="_x33_" width="800" height="800" data-name="_x33_" style="overflow:visible" transform="matrix(5.475,0,0,5.475,5876.4614,4310.769)"/><image xlink:href="_x34_.png" id="_x34_" width="800" height="800" data-name="_x34_" style="overflow:visible" transform="matrix(5.475,0,0,5.475,5876.4614,4310.769)"/><image xlink:href="_x35_.png" id="_x35_" width="800" height="800" data-name="_x35_" style="overflow:visible" transform="matrix(5.475,0,0,5.475,5876.4614,4310.769)"/><image xlink:href="_x36_.png" id="_x36_" width="800" height="800" data-name="_x36_" style="overflow:visible" transform="matrix(5.475,0,0,5.475,5876.4614,4310.769)"/></g><g id="Choose _x35__18_"><image xlink:href="_x31__00000170246739111286317130000007624775506971113657_.png" id="_x31__00000170246739111286317130000007624775506971113657_" width="800" height="800" data-name="_x31__00000170246739111286317130000007624775506971113657_" style="overflow:visible" transform="matrix(1.9288,0,0,1.9288,8391.5332,8660.1123)"/><image xlink:href="_x32__00000061430812086854349970000006107261099256617376_.png" id="_x32__00000061430812086854349970000006107261099256617376_" width="800" height="800" data-name="_x32__00000061430812086854349970000006107261099256617376_" style="overflow:visible" transform="matrix(1.9288,0,0,1.9288,8391.5332,8660.1123)"/><image xlink:href="_x33__00000059308452288137608440000013302093770665623217_.png" id="_x33__00000059308452288137608440000013302093770665623217_" width="800" height="800" data-name="_x33__00000059308452288137608440000013302093770665623217_" style="overflow:visible" transform="matrix(1.9288,0,0,1.9288,8391.5332,8660.1123)"/><image xlink:href="_x34__00000062911309728117640750000005831426562279617417_.png" id="_x34__00000062911309728117640750000005831426562279617417_" width="800" height="800" data-name="_x34__00000062911309728117640750000005831426562279617417_" style="overflow:visible" transform="matrix(1.9288,0,0,1.9288,8391.5332,8660.1123)"/><image xlink:href="_x35__00000060005367637843074570000016599843764016997543_.png" id="_x35__00000060005367637843074570000016599843764016997543_" width="800" height="800" data-name="_x35__00000060005367637843074570000016599843764016997543_" style="overflow:visible" transform="matrix(1.9288,0,0,1.9288,8391.5332,8660.1123)"/><image xlink:href="_x36__00000008841815141737896960000002036032685522450602_.png" id="_x36__00000008841815141737896960000002036032685522450602_" width="800" height="800" data-name="_x36__00000008841815141737896960000002036032685522450602_" style="overflow:visible" transform="matrix(1.9288,0,0,1.9288,8391.5332,8660.1123)"/><image xlink:href="_x37__00000018232299053973620100000003371913769037422466_.png" id="_x37__00000018232299053973620100000003371913769037422466_" width="800" height="800" data-name="_x37__00000018232299053973620100000003371913769037422466_" style="overflow:visible" transform="matrix(1.9288,0,0,1.9288,8391.5332,8660.1123)"/><image xlink:href="_x38__00000037669448592680266110000015910760320011075974_.png" id="_x38__00000037669448592680266110000015910760320011075974_" width="800" height="800" data-name="_x38__00000037669448592680266110000015910760320011075974_" style="overflow:visible" transform="matrix(1.9288,0,0,1.9288,8391.5332,8660.1123)"/><image xlink:href="_x39__00000089534556830419457460000009478756293529370009_.png" id="_x39__00000089534556830419457460000009478756293529370009_" width="800" height="800" data-name="_x39__00000089534556830419457460000009478756293529370009_" style="overflow:visible" transform="matrix(1.9288,0,0,1.9288,8391.5332,8660.1123)"/><image xlink:href="_x31_0_00000039119641293793173870000002871040221965537453_.png" id="_x31_0_00000039119641293793173870000002871040221965537453_" width="800" height="800" data-name="_x31_0_00000039119641293793173870000002871040221965537453_" style="overflow:visible" transform="matrix(1.9288,0,0,1.9288,8391.5332,8660.1123)"/><image xlink:href="_x31_1_00000181774629685023958540000014183195898446195643_.png" id="_x31_1_00000181774629685023958540000014183195898446195643_" width="800" height="800" data-name="_x31_1_00000181774629685023958540000014183195898446195643_" style="overflow:visible" transform="matrix(1.9288,0,0,1.9288,8391.5332,8660.1123)"/><image xlink:href="_x31_2_00000042703470498774938190000010452863073426550970_.png" id="_x31_2_00000042703470498774938190000010452863073426550970_" width="800" height="800" data-name="_x31_2_00000042703470498774938190000010452863073426550970_" style="overflow:visible" transform="matrix(1.9288,0,0,1.9288,8391.5332,8660.1123)"/></g><g id="Choose _x34__12_"><image xlink:href="_x31__16_.png" id="_x31__16_" width="800" height="800" data-name="_x31__16_" style="overflow:visible" transform="matrix(1.9288,0,0,1.9288,7540.7095,8660.1123)"/><image xlink:href="_x32__16_.png" id="_x32__16_" width="800" height="800" data-name="_x32__16_" style="overflow:visible" transform="matrix(1.9288,0,0,1.9288,7540.7095,8660.1123)"/><image xlink:href="_x33__13_.png" id="_x33__13_" width="800" height="800" data-name="_x33__13_" style="overflow:visible" transform="matrix(1.9288,0,0,1.9288,7540.7095,8660.1123)"/><image xlink:href="_x34__15_.png" id="_x34__15_" width="800" height="800" data-name="_x34__15_" style="overflow:visible" transform="matrix(1.9288,0,0,1.9288,7540.7095,8660.1123)"/><image xlink:href="_x35__11_.png" id="_x35__11_" width="800" height="800" data-name="_x35__11_" style="overflow:visible" transform="matrix(1.9288,0,0,1.9288,7540.7095,8660.1123)"/><image xlink:href="_x36__10_.png" id="_x36__10_" width="800" height="800" data-name="_x36__10_" style="overflow:visible" transform="matrix(1.9288,0,0,1.9288,7540.7095,8660.1123)"/><image xlink:href="_x37__9_.png" id="_x37__9_" width="800" height="800" data-name="_x37__9_" style="overflow:visible" transform="matrix(1.9288,0,0,1.9288,7540.7095,8660.1123)"/><image xlink:href="_x38__9_.png" id="_x38__9_" width="800" height="800" data-name="_x38__9_" style="overflow:visible" transform="matrix(1.9288,0,0,1.9288,7540.7095,8660.1123)"/><image xlink:href="_x39__9_.png" id="_x39__9_" width="800" height="800" data-name="_x39__9_" style="overflow:visible" transform="matrix(1.9288,0,0,1.9288,7540.7095,8660.1123)"/><image xlink:href="_x31_0_9_.png" id="_x31_0_9_" width="800" height="800" data-name="_x31_0_9_" style="overflow:visible" transform="matrix(1.9288,0,0,1.9288,7540.7095,8660.1123)"/><image xlink:href="_x31_1_9_.png" id="_x31_1_9_" width="800" height="800" data-name="_x31_1_9_" style="overflow:visible" transform="matrix(1.9288,0,0,1.9288,7540.7095,8660.1123)"/><image xlink:href="_x31_2_9_.png" id="_x31_2_9_" width="800" height="800" data-name="_x31_2_9_" style="overflow:visible" transform="matrix(1.9288,0,0,1.9288,7540.7095,8660.1123)"/></g><g id="Choose _x33__15_"><image xlink:href="_x31__00000062189002881337573630000015616598499483310493_.png" id="_x31__00000062189002881337573630000015616598499483310493_" width="800" height="800" data-name="_x31__00000062189002881337573630000015616598499483310493_" style="overflow:visible" transform="matrix(1.9288,0,0,1.9288,8841.9355,7538.8721)"/><image xlink:href="_x32__00000162330341133045505110000013409473313908970135_.png" id="_x32__00000162330341133045505110000013409473313908970135_" width="800" height="800" data-name="_x32__00000162330341133045505110000013409473313908970135_" style="overflow:visible" transform="matrix(1.9288,0,0,1.9288,8841.9355,7538.8721)"/><image xlink:href="_x33__00000148650901603267869020000018399291787943710398_.png" id="_x33__00000148650901603267869020000018399291787943710398_" width="800" height="800" data-name="_x33__00000148650901603267869020000018399291787943710398_" style="overflow:visible" transform="matrix(1.9288,0,0,1.9288,8841.9355,7538.8721)"/><image xlink:href="_x34__00000062887188798568411790000018133269437255929989_.png" id="_x34__00000062887188798568411790000018133269437255929989_" width="800" height="800" data-name="_x34__00000062887188798568411790000018133269437255929989_" style="overflow:visible" transform="matrix(1.9288,0,0,1.9288,8841.9355,7538.8721)"/><image xlink:href="_x35__00000098182838149415921780000004223411015821820596_.png" id="_x35__00000098182838149415921780000004223411015821820596_" width="800" height="800" data-name="_x35__00000098182838149415921780000004223411015821820596_" style="overflow:visible" transform="matrix(1.9288,0,0,1.9288,8841.9355,7538.8721)"/><image xlink:href="_x36__00000075847820731205429880000006056342945290343573_.png" id="_x36__00000075847820731205429880000006056342945290343573_" width="800" height="800" data-name="_x36__00000075847820731205429880000006056342945290343573_" style="overflow:visible" transform="matrix(1.9288,0,0,1.9288,8841.9355,7538.8721)"/><image xlink:href="_x37__00000004531027197304385410000014360189874608692368_.png" id="_x37__00000004531027197304385410000014360189874608692368_" width="800" height="800" data-name="_x37__00000004531027197304385410000014360189874608692368_" style="overflow:visible" transform="matrix(1.9288,0,0,1.9288,8841.9355,7538.8721)"/><image xlink:href="_x38__00000134968761594124225620000005324442622315109544_.png" id="_x38__00000134968761594124225620000005324442622315109544_" width="800" height="800" data-name="_x38__00000134968761594124225620000005324442622315109544_" style="overflow:visible" transform="matrix(1.9288,0,0,1.9288,8841.9355,7538.8721)"/><image xlink:href="_x39__00000153689289028889526030000010280050955082089872_.png" id="_x39__00000153689289028889526030000010280050955082089872_" width="800" height="800" data-name="_x39__00000153689289028889526030000010280050955082089872_" style="overflow:visible" transform="matrix(1.9288,0,0,1.9288,8841.9355,7538.8721)"/><image xlink:href="_x31_0_00000037659457008030654250000018315293830048911509_.png" id="_x31_0_00000037659457008030654250000018315293830048911509_" width="800" height="800" data-name="_x31_0_00000037659457008030654250000018315293830048911509_" style="overflow:visible" transform="matrix(1.9288,0,0,1.9288,8841.9355,7538.8721)"/><image xlink:href="_x31_1_00000151516513198320774520000001265651518802064278_.png" id="_x31_1_00000151516513198320774520000001265651518802064278_" width="800" height="800" data-name="_x31_1_00000151516513198320774520000001265651518802064278_" style="overflow:visible" transform="matrix(1.9288,0,0,1.9288,8841.9355,7538.8721)"/><image xlink:href="_x31_2_00000042727251594442489730000017261050592192015551_.png" id="_x31_2_00000042727251594442489730000017261050592192015551_" width="800" height="800" data-name="_x31_2_00000042727251594442489730000017261050592192015551_" style="overflow:visible" transform="matrix(1.9288,0,0,1.9288,8841.9355,7538.8721)"/></g><g id="Choose _x32__18_"><image xlink:href="_x31__24_.png" id="_x31__24_" width="800" height="800" data-name="_x31__24_" style="overflow:visible" transform="matrix(1.9288,0,0,1.9288,7986.0825,7538.8721)"/><image xlink:href="_x32__24_.png" id="_x32__24_" width="800" height="800" data-name="_x32__24_" style="overflow:visible" transform="matrix(1.9288,0,0,1.9288,7986.0825,7538.8721)"/><image xlink:href="_x33__22_.png" id="_x33__22_" width="800" height="800" data-name="_x33__22_" style="overflow:visible" transform="matrix(1.9288,0,0,1.9288,7986.0825,7538.8721)"/><image xlink:href="_x34__21_.png" id="_x34__21_" width="800" height="800" data-name="_x34__21_" style="overflow:visible" transform="matrix(1.9288,0,0,1.9288,7986.0825,7538.8721)"/><image xlink:href="_x35__20_.png" id="_x35__20_" width="800" height="800" data-name="_x35__20_" style="overflow:visible" transform="matrix(1.9288,0,0,1.9288,7986.0825,7538.8721)"/><image xlink:href="_x36__17_.png" id="_x36__17_" width="800" height="800" data-name="_x36__17_" style="overflow:visible" transform="matrix(1.9288,0,0,1.9288,7986.0825,7538.8721)"/><image xlink:href="_x37__16_.png" id="_x37__16_" width="800" height="800" data-name="_x37__16_" style="overflow:visible" transform="matrix(1.9288,0,0,1.9288,7986.0825,7538.8721)"/><image xlink:href="_x38__16_.png" id="_x38__16_" width="800" height="800" data-name="_x38__16_" style="overflow:visible" transform="matrix(1.9288,0,0,1.9288,7986.0825,7538.8721)"/><image xlink:href="_x39__16_.png" id="_x39__16_" width="800" height="800" data-name="_x39__16_" style="overflow:visible" transform="matrix(1.9288,0,0,1.9288,7986.0825,7538.8721)"/><image xlink:href="_x31_0_16_.png" id="_x31_0_16_" width="800" height="800" data-name="_x31_0_16_" style="overflow:visible" transform="matrix(1.9288,0,0,1.9288,7986.0825,7538.8721)"/><image xlink:href="_x31_1_16_.png" id="_x31_1_16_" width="800" height="800" data-name="_x31_1_16_" style="overflow:visible" transform="matrix(1.9288,0,0,1.9288,7986.0825,7538.8721)"/><image xlink:href="_x31_2_16_.png" id="_x31_2_16_" width="800" height="800" data-name="_x31_2_16_" style="overflow:visible" transform="matrix(1.9288,0,0,1.9288,7986.0825,7538.8721)"/></g><g id="Choose _x31__20_"><image xlink:href="_x31__00000157301978164391331770000005007153810402747281_.png" id="_x31__00000157301978164391331770000005007153810402747281_" width="800" height="800" data-name="_x31__00000157301978164391331770000005007153810402747281_" style="overflow:visible" transform="matrix(1.9288,0,0,1.9288,7109.98,7538.8721)"/><image xlink:href="_x32__00000146492044468177260500000003900441648476009620_.png" id="_x32__00000146492044468177260500000003900441648476009620_" width="800" height="800" data-name="_x32__00000146492044468177260500000003900441648476009620_" style="overflow:visible" transform="matrix(1.9288,0,0,1.9288,7109.98,7538.8721)"/><image xlink:href="_x33__00000159463966796188220730000008449469883141782447_.png" id="_x33__00000159463966796188220730000008449469883141782447_" width="800" height="800" data-name="_x33__00000159463966796188220730000008449469883141782447_" style="overflow:visible" transform="matrix(1.9288,0,0,1.9288,7109.98,7538.8721)"/><image xlink:href="_x34__00000054972210040217223250000009462056397367321494_.png" id="_x34__00000054972210040217223250000009462056397367321494_" width="800" height="800" data-name="_x34__00000054972210040217223250000009462056397367321494_" style="overflow:visible" transform="matrix(1.9288,0,0,1.9288,7109.98,7538.8721)"/><image xlink:href="_x35__00000016058168281656024240000005260689316270402451_.png" id="_x35__00000016058168281656024240000005260689316270402451_" width="800" height="800" data-name="_x35__00000016058168281656024240000005260689316270402451_" style="overflow:visible" transform="matrix(1.9288,0,0,1.9288,7109.98,7538.8721)"/><image xlink:href="_x36__00000005261895439191894000000001331611477107432110_.png" id="_x36__00000005261895439191894000000001331611477107432110_" width="800" height="800" data-name="_x36__00000005261895439191894000000001331611477107432110_" style="overflow:visible" transform="matrix(1.9288,0,0,1.9288,7109.98,7538.8721)"/><image xlink:href="_x37__00000072265437890789816570000015630695883454748588_.png" id="_x37__00000072265437890789816570000015630695883454748588_" width="800" height="800" data-name="_x37__00000072265437890789816570000015630695883454748588_" style="overflow:visible" transform="matrix(1.9288,0,0,1.9288,7109.98,7538.8721)"/><image xlink:href="_x38__00000002362531519543896820000008484413235815889542_.png" id="_x38__00000002362531519543896820000008484413235815889542_" width="800" height="800" data-name="_x38__00000002362531519543896820000008484413235815889542_" style="overflow:visible" transform="matrix(1.9288,0,0,1.9288,7109.98,7538.8721)"/><image xlink:href="_x39__00000072259090188912493260000003233456606678233474_.png" id="_x39__00000072259090188912493260000003233456606678233474_" width="800" height="800" data-name="_x39__00000072259090188912493260000003233456606678233474_" style="overflow:visible" transform="matrix(1.9288,0,0,1.9288,7109.98,7538.8721)"/><image xlink:href="_x31_0_00000043437239327220500630000016012384984094230431_.png" id="_x31_0_00000043437239327220500630000016012384984094230431_" width="800" height="800" data-name="_x31_0_00000043437239327220500630000016012384984094230431_" style="overflow:visible" transform="matrix(1.9288,0,0,1.9288,7109.98,7538.8721)"/><image xlink:href="_x31_1_00000095307068562694333710000002024083865326254467_.png" id="_x31_1_00000095307068562694333710000002024083865326254467_" width="800" height="800" data-name="_x31_1_00000095307068562694333710000002024083865326254467_" style="overflow:visible" transform="matrix(1.9288,0,0,1.9288,7109.98,7538.8721)"/><image xlink:href="_x31_2_00000103950339043060901470000000789608913399974562_.png" id="_x31_2_00000103950339043060901470000000789608913399974562_" width="800" height="800" data-name="_x31_2_00000103950339043060901470000000789608913399974562_" style="overflow:visible" transform="matrix(1.9288,0,0,1.9288,7109.98,7538.8721)"/></g><g id="Text__x40_Design"><text svgjs:data="{&quot;leading&quot;:&quot;1.3&quot;}" data-name="_x31__77_" style="font-family:&quot;NiceChalkDemo&quot;;font-size:128.319px" transform="matrix(1,0,0,1,7636.0332,9200.6191)">Qwertyuiop</text><text svgjs:data="{&quot;leading&quot;:&quot;1.3&quot;}" data-name="_x32__76_" style="font-family:&quot;NiceChalkDemo&quot;;font-size:128.319px" transform="matrix(1,0,0,1,8525.3438,9201.5254)">Qwertyuiop</text><text svgjs:data="{&quot;leading&quot;:&quot;1.3&quot;}" data-name="_x33__72_" style="font-family:&quot;NiceChalkDemo&quot;;font-size:128.319px" transform="matrix(1,0,0,1,9373.1611,9201.5254)">Qwertyuiop</text><text svgjs:data="{&quot;leading&quot;:&quot;1.3&quot;}" data-name="_x34__70_" style="font-family:&quot;NiceChalkDemo&quot;;font-size:128.319px" transform="matrix(1,0,0,1,8070.1621,10328.4141)">Qwertyuiop</text><text svgjs:data="{&quot;leading&quot;:&quot;1.3&quot;}" data-name="_x35__61_" style="font-family:&quot;NiceChalkDemo&quot;;font-size:128.319px" transform="matrix(1,0,0,1,8917.9072,10328.4141)">Qwertyuiop</text></g></svg>